<svg xmlns="http://www.w3.org/2000/svg" viewBox="0 0 32 40" fill="none" x="0px" y="0px">
<path d="M27.8959 7.79047C25.4335 8.14041 24.783 8.80696 24.426 11.2806C24.406 11.4195 24.2094 11.4191 24.1899 11.2801C23.843 8.80918 23.1818 8.15471 20.7196 7.79545C20.5804 7.77514 20.5807 7.57631 20.7201 7.55647C23.1646 7.20837 23.8254 6.54735 24.1808 4.10922C24.202 3.96338 24.4082 3.96356 24.4293 4.10941C24.7816 6.54819 25.4446 7.19582 27.8964 7.55287C28.0348 7.57299 28.0344 7.7708 27.8959 7.79047Z" fill="black"/>
<path d="M14.9728 7.79047C12.5104 8.14041 11.8599 8.80696 11.5029 11.2806C11.4829 11.4195 11.2863 11.4191 11.2668 11.2801C10.9199 8.80918 10.2587 8.15471 7.7965 7.79545C7.6573 7.77514 7.65758 7.57631 7.79696 7.55647C10.2416 7.20837 10.9023 6.54735 11.2577 4.10922C11.2789 3.96338 11.4851 3.96356 11.5062 4.10941C11.8585 6.54819 12.5215 7.19582 14.9733 7.55287C15.1117 7.57299 15.1114 7.7708 14.9728 7.79047Z" fill="black"/>
<path d="M26.9988 18.8429C25.152 19.1053 24.6642 19.6052 24.3965 21.4604C24.3814 21.5646 24.234 21.5643 24.2193 21.4601C23.9591 19.6068 23.4632 19.116 21.6166 18.8466C21.5122 18.8313 21.5125 18.6822 21.6169 18.6673C23.4503 18.4063 23.9459 17.9105 24.2124 16.0818C24.2284 15.9725 24.383 15.9726 24.3988 16.082C24.663 17.9111 25.1602 18.3968 26.9991 18.6646C27.103 18.6798 27.1028 18.8281 26.9988 18.8429Z" fill="black"/>
<path d="M18.027 13.1118C18.1733 13.2082 18.3356 13.3369 18.4994 13.5006C18.6632 13.6643 18.7918 13.8267 18.8881 13.9729L16.3815 16.4795C16.2353 16.3831 16.0729 16.2545 15.9091 16.0908C15.7454 15.927 15.6167 15.7647 15.5203 15.6185L18.027 13.1118ZM18.2606 11.3993C18.0676 11.4379 17.8662 11.5504 17.7008 11.7157L4.33114 25.0855C4.06964 25.347 3.94031 25.699 4.02662 25.965C4.14847 26.3405 4.42539 26.7768 4.82425 27.1758C5.22321 27.5746 5.65955 27.8515 6.03506 27.9734C6.1329 28.0052 6.24247 28.0078 6.35481 27.9852C6.54783 27.9466 6.74924 27.8341 6.91447 27.6689L20.2842 14.2991C20.5457 14.0376 20.675 13.6855 20.5887 13.4196C20.4669 13.0441 20.19 12.6077 19.7911 12.2089C19.3921 11.8099 18.9558 11.5331 18.5803 11.4112C18.4824 11.3794 18.3729 11.3769 18.2606 11.3993Z" fill="black"/>
</svg>